# xmcd CD database file
#
# Track frame offsets:
#	150
#	32210
#	66177
#	88217
#	120380
#	144185
#	165153
#	203177
#	227958
#	256544
#
# Disc length: 3677 seconds
#
# Revision: 0
# Processed by: cddbd v1.5.2PL0 Copyright (c) Steve Scherf et al.
# Submitted via: CDex 1.81
#
DISCID=7c0e5b0a
DTITLE=Various Artist - Twelve Inch Eighties - Hold Me Now [CD1)
DYEAR=2017
DGENRE=80's
TTITLE0=Spandau Ballet - Through The Barricades (Extended Version)
TTITLE1=Paul Young - Every Time You Go Away (Extended Remix Version)
TTITLE2=Nick Heyward - Whistle Down The Wind (12" Version)
TTITLE3=Thompson Twins - Hold Me Now (12 Version)
TTITLE4=Japan - I Second That Emotion (12 Version)
TTITLE5=Dee C. Lee - See The Day (12 Version)
TTITLE6=Belinda Carlisle - World Without You (Extended Worldwide Mix)
TTITLE7=Deacon Blue - When Will You (Make My Telephone Ring)? (12" Version)
TTITLE8=King - The Taste Of Your Tears (Breaker Heart Mix)
TTITLE9=Haircut 100 - Fantastic Day (12" Version)
EXTD=YEAR: 2017
EXTT0=
EXTT1=
EXTT2=
EXTT3=
EXTT4=
EXTT5=
EXTT6=
EXTT7=
EXTT8=
EXTT9=
PLAYORDER=
